<svg xmlns="http://www.w3.org/2000/svg" xmlns:xlink="http://www.w3.org/1999/xlink" width="382" zoomAndPan="magnify" viewBox="0 0 286.5 120.749998" height="161" preserveAspectRatio="xMidYMid meet" version="1.0"><defs><g/></defs><g fill="#ab8742" fill-opacity="0.4"><g transform="translate(47.898807, 74.862701)"><g><path d="M 12.109375 4.71875 C 4.992188 4.71875 1.4375 0.523438 1.4375 -7.859375 C 1.4375 -14.796875 3.285156 -20.382812 6.984375 -24.625 C 10.078125 -28.269531 13.632812 -30.09375 17.65625 -30.09375 C 19.882812 -30.09375 21.648438 -29.5 22.953125 -28.3125 C 24.253906 -27.132812 24.90625 -25.425781 24.90625 -23.1875 C 24.90625 -19.632812 23.535156 -16.03125 20.796875 -12.375 C 17.960938 -8.59375 15.085938 -6.703125 12.171875 -6.703125 C 10.484375 -6.703125 9.238281 -7.203125 8.4375 -8.203125 C 7.644531 -9.210938 7.25 -10.421875 7.25 -11.828125 C 7.25 -12.742188 7.429688 -13.75 7.796875 -14.84375 C 8.296875 -16.164062 8.820312 -16.828125 9.375 -16.828125 C 9.78125 -16.828125 9.984375 -16.625 9.984375 -16.21875 C 9.984375 -15.988281 9.78125 -15.394531 9.375 -14.4375 C 9.050781 -13.75 8.890625 -13.039062 8.890625 -12.3125 C 8.890625 -11.351562 9.195312 -10.585938 9.8125 -10.015625 C 10.425781 -9.453125 11.238281 -9.171875 12.25 -9.171875 C 14.9375 -9.171875 17.46875 -10.878906 19.84375 -14.296875 C 22.070312 -17.484375 23.1875 -20.65625 23.1875 -23.8125 C 23.1875 -25.445312 22.785156 -26.707031 21.984375 -27.59375 C 21.191406 -28.488281 20.113281 -28.9375 18.75 -28.9375 C 15.507812 -28.9375 12.269531 -26.703125 9.03125 -22.234375 C 5.695312 -17.441406 4.125 -12.175781 4.3125 -6.4375 C 4.40625 -3.875 5.097656 -1.707031 6.390625 0.0625 C 7.691406 1.84375 9.4375 2.734375 11.625 2.734375 C 17.78125 2.734375 25.648438 -5.453125 35.234375 -21.828125 C 30.210938 -23.328125 27.703125 -26.289062 27.703125 -30.71875 C 27.703125 -33.675781 28.5 -36.351562 30.09375 -38.75 C 31.695312 -41.144531 33.890625 -43.164062 36.671875 -44.8125 C 40.453125 -47 44.144531 -48.09375 47.75 -48.09375 C 49.707031 -48.09375 51.609375 -47.851562 53.453125 -47.375 C 55.304688 -46.894531 56.847656 -46.140625 58.078125 -45.109375 C 59.304688 -44.085938 59.921875 -42.753906 59.921875 -41.109375 C 59.921875 -40.566406 59.796875 -40.039062 59.546875 -39.53125 C 59.296875 -39.03125 59.035156 -38.78125 58.765625 -38.78125 C 58.804688 -38.78125 58.597656 -38.925781 58.140625 -39.21875 C 57.691406 -39.519531 57.191406 -39.671875 56.640625 -39.671875 C 52.765625 -39.671875 47.453125 -33.90625 40.703125 -22.375 C 40.878906 -22.320312 41.054688 -22.296875 41.234375 -22.296875 C 41.421875 -22.296875 41.609375 -22.296875 41.796875 -22.296875 C 42.929688 -22.296875 44.035156 -22.5 45.109375 -22.90625 C 46.179688 -23.320312 47.070312 -23.894531 47.78125 -24.625 C 48.488281 -25.351562 48.84375 -26.175781 48.84375 -27.09375 C 48.84375 -27.457031 48.757812 -27.832031 48.59375 -28.21875 C 48.4375 -28.601562 48.359375 -28.84375 48.359375 -28.9375 C 48.359375 -29.300781 48.539062 -29.484375 48.90625 -29.484375 C 49.09375 -29.484375 49.273438 -29.414062 49.453125 -29.28125 C 50.503906 -28.5 51.03125 -27.539062 51.03125 -26.40625 C 51.03125 -25.257812 50.597656 -24.253906 49.734375 -23.390625 C 48.867188 -22.523438 47.757812 -21.851562 46.40625 -21.375 C 45.0625 -20.894531 43.707031 -20.65625 42.34375 -20.65625 C 41.570312 -20.65625 40.796875 -20.722656 40.015625 -20.859375 C 36.867188 -15.066406 33.039062 -9.734375 28.53125 -4.859375 C 22.507812 1.523438 17.035156 4.71875 12.109375 4.71875 Z M 36.390625 -23.53125 C 38.898438 -27.632812 41.957031 -31.535156 45.5625 -35.234375 C 49.894531 -39.703125 53.382812 -41.9375 56.03125 -41.9375 C 56.707031 -41.9375 57.296875 -41.773438 57.796875 -41.453125 C 57.753906 -42.316406 57.34375 -43.101562 56.5625 -43.8125 C 55.789062 -44.519531 54.867188 -45.078125 53.796875 -45.484375 C 52.722656 -45.898438 51.707031 -46.128906 50.75 -46.171875 C 47.75 -46.304688 44.5625 -45.625 41.1875 -44.125 C 38.3125 -42.84375 35.945312 -40.914062 34.09375 -38.34375 C 32.25 -35.769531 31.328125 -32.796875 31.328125 -29.421875 C 31.328125 -26.128906 33.015625 -24.164062 36.390625 -23.53125 Z M 36.390625 -23.53125 "/></g></g></g><g fill="#ab8742" fill-opacity="0.4"><g transform="translate(87.300234, 74.862701)"><g><path d="M 4.578125 0.34375 C 3.210938 0.34375 2.050781 -0.03125 1.09375 -0.78125 C 0.132812 -1.539062 -0.410156 -2.46875 -0.546875 -3.5625 C -0.734375 -5.019531 -0.519531 -6.488281 0.09375 -7.96875 C 0.71875 -9.445312 1.5625 -10.867188 2.625 -12.234375 C 3.695312 -13.609375 4.851562 -14.890625 6.09375 -16.078125 C 10.925781 -20.910156 15.28125 -23.328125 19.15625 -23.328125 C 20.476562 -23.328125 21.367188 -22.984375 21.828125 -22.296875 C 22.003906 -22.066406 22.207031 -21.546875 22.4375 -20.734375 C 27.539062 -29.023438 31.097656 -33.171875 33.109375 -33.171875 C 33.566406 -33.171875 34.046875 -33.054688 34.546875 -32.828125 C 35.046875 -32.609375 35.296875 -32.316406 35.296875 -31.953125 C 35.296875 -31.722656 35.179688 -31.425781 34.953125 -31.0625 C 33.585938 -29.375 32.21875 -27.695312 30.84375 -26.03125 C 29.476562 -24.363281 28.132812 -22.6875 26.8125 -21 C 24.582031 -18.175781 22.78125 -15.710938 21.40625 -13.609375 C 20.039062 -11.515625 19.0625 -9.738281 18.46875 -8.28125 C 18.289062 -7.820312 18.117188 -7.257812 17.953125 -6.59375 C 17.796875 -5.9375 17.71875 -5.265625 17.71875 -4.578125 C 17.71875 -3.710938 17.898438 -2.960938 18.265625 -2.328125 C 18.628906 -1.691406 19.289062 -1.375 20.25 -1.375 C 21.75 -1.375 23.59375 -2.101562 25.78125 -3.5625 C 27.976562 -5.019531 30.535156 -7.410156 33.453125 -10.734375 C 33.628906 -10.921875 33.796875 -11.082031 33.953125 -11.21875 C 34.117188 -11.351562 34.296875 -11.445312 34.484375 -11.5 C 34.890625 -11.582031 35.09375 -11.488281 35.09375 -11.21875 C 35.09375 -11.082031 34.957031 -10.832031 34.6875 -10.46875 C 33.269531 -8.78125 31.691406 -7.113281 29.953125 -5.46875 C 28.222656 -3.832031 26.457031 -2.476562 24.65625 -1.40625 C 22.851562 -0.332031 21.175781 0.203125 19.625 0.203125 C 18.082031 0.203125 16.988281 -0.316406 16.34375 -1.359375 C 15.707031 -2.410156 15.390625 -3.597656 15.390625 -4.921875 C 15.390625 -6.296875 15.640625 -7.550781 16.140625 -8.6875 L 10.609375 -3.140625 C 9.367188 -1.910156 8.234375 -1.019531 7.203125 -0.46875 C 6.179688 0.0703125 5.304688 0.34375 4.578125 0.34375 Z M 3.96875 -1.15625 C 5.925781 -1.15625 9.1875 -3.847656 13.75 -9.234375 C 13.976562 -9.503906 14.773438 -10.515625 16.140625 -12.265625 C 17.515625 -14.023438 19.453125 -16.59375 21.953125 -19.96875 C 21.640625 -20.519531 21.09375 -20.796875 20.3125 -20.796875 C 17.488281 -20.796875 13.707031 -18.5625 8.96875 -14.09375 C 4.488281 -9.9375 2.25 -6.445312 2.25 -3.625 C 2.25 -1.976562 2.820312 -1.15625 3.96875 -1.15625 Z M 3.96875 -1.15625 "/></g></g></g><g fill="#ab8742" fill-opacity="0.4"><g transform="translate(119.245491, 74.862701)"><g><path d="M 3.484375 0.890625 C 2.023438 0.890625 0.707031 0.421875 -0.46875 -0.515625 C -1.65625 -1.453125 -2.25 -2.691406 -2.25 -4.234375 C -2.25 -7.472656 -0.269531 -11.171875 3.6875 -15.328125 C 7.75 -19.515625 11.378906 -21.609375 14.578125 -21.609375 C 15.617188 -21.609375 16.46875 -21.320312 17.125 -20.75 C 17.789062 -20.1875 18.125 -19.492188 18.125 -18.671875 C 18.125 -16.117188 16.097656 -13.613281 12.046875 -11.15625 C 8.441406 -8.957031 5.40625 -7.859375 2.9375 -7.859375 C 2.570312 -7.859375 2.253906 -7.90625 1.984375 -8 C 1.296875 -6.769531 0.953125 -5.472656 0.953125 -4.109375 C 0.953125 -1.734375 2.070312 -0.546875 4.3125 -0.546875 C 6.59375 -0.546875 9.535156 -2.070312 13.140625 -5.125 C 15.921875 -7.363281 18.289062 -9.738281 20.25 -12.25 C 20.65625 -12.789062 21.019531 -13.0625 21.34375 -13.0625 C 21.613281 -13.0625 21.75 -12.925781 21.75 -12.65625 C 21.75 -12.382812 21.566406 -12 21.203125 -11.5 C 19.929688 -9.8125 18.5625 -8.257812 17.09375 -6.84375 C 15.632812 -5.425781 14.0625 -4.125 12.375 -2.9375 C 8.863281 -0.382812 5.898438 0.890625 3.484375 0.890625 Z M 3.90625 -9.375 C 5.632812 -9.375 7.890625 -10.238281 10.671875 -11.96875 C 11.585938 -12.601562 12.488281 -13.320312 13.375 -14.125 C 14.257812 -14.925781 14.988281 -15.734375 15.5625 -16.546875 C 16.132812 -17.367188 16.421875 -18.101562 16.421875 -18.75 C 16.421875 -19.332031 15.941406 -19.625 14.984375 -19.625 C 13.609375 -19.625 11.691406 -18.597656 9.234375 -16.546875 C 8.046875 -15.546875 6.90625 -14.453125 5.8125 -13.265625 C 4.71875 -12.085938 3.785156 -10.835938 3.015625 -9.515625 C 3.285156 -9.421875 3.582031 -9.375 3.90625 -9.375 Z M 3.90625 -9.375 "/></g></g></g><g fill="#ab8742" fill-opacity="0.4"><g transform="translate(136.825645, 74.862701)"><g><path d="M 4.578125 0.34375 C 3.484375 0.34375 2.390625 -0.0390625 1.296875 -0.8125 C 0.203125 -1.59375 -0.410156 -2.507812 -0.546875 -3.5625 C -1.003906 -7.070312 1.207031 -11.242188 6.09375 -16.078125 C 10.925781 -20.910156 15.28125 -23.328125 19.15625 -23.328125 C 20.207031 -23.328125 21.023438 -23.078125 21.609375 -22.578125 C 21.929688 -22.253906 22.171875 -21.816406 22.328125 -21.265625 C 22.492188 -20.722656 22.617188 -20.453125 22.703125 -20.453125 C 22.890625 -20.453125 23.050781 -20.484375 23.1875 -20.546875 C 23.320312 -20.617188 23.484375 -20.65625 23.671875 -20.65625 C 24.210938 -20.65625 24.6875 -20.445312 25.09375 -20.03125 C 25.507812 -19.625 25.742188 -19.265625 25.796875 -18.953125 C 25.835938 -18.859375 24.375 -16.597656 21.40625 -12.171875 C 18.445312 -7.835938 17.101562 -4.898438 17.375 -3.359375 C 17.601562 -2.304688 18.101562 -1.78125 18.875 -1.78125 C 21.25 -1.78125 25.582031 -5.703125 31.875 -13.546875 C 32.007812 -13.722656 32.144531 -13.8125 32.28125 -13.8125 C 32.507812 -13.8125 32.625 -13.65625 32.625 -13.34375 C 32.625 -12.976562 32.421875 -12.519531 32.015625 -11.96875 C 26.222656 -4.175781 21.773438 -0.28125 18.671875 -0.28125 C 18.265625 -0.28125 17.878906 -0.347656 17.515625 -0.484375 C 15.503906 -1.253906 14.5 -2.757812 14.5 -5 C 14.5 -5.769531 14.59375 -6.539062 14.78125 -7.3125 L 10.53125 -3.21875 C 9.257812 -1.9375 8.109375 -1.019531 7.078125 -0.46875 C 6.054688 0.0703125 5.222656 0.34375 4.578125 0.34375 Z M 3.96875 -1.15625 C 6.613281 -1.15625 10.21875 -4.050781 14.78125 -9.84375 L 22.03125 -19.84375 C 21.664062 -20.476562 21.070312 -20.796875 20.25 -20.796875 C 17.46875 -20.796875 13.707031 -18.5625 8.96875 -14.09375 C 4.039062 -9.53125 1.828125 -5.765625 2.328125 -2.796875 C 2.554688 -1.703125 3.101562 -1.15625 3.96875 -1.15625 Z M 3.96875 -1.15625 "/></g></g></g><g fill="#ab8742" fill-opacity="0.4"><g transform="translate(165.008616, 74.862701)"><g><path d="M 5.203125 0.140625 C 3.878906 0.140625 2.644531 -0.1875 1.5 -0.84375 C 0.363281 -1.507812 -0.203125 -2.617188 -0.203125 -4.171875 C -0.203125 -6.316406 0.554688 -8.867188 2.078125 -11.828125 C 3.609375 -14.796875 5.351562 -17.875 7.3125 -21.0625 C 12.65625 -29.726562 16.441406 -34.0625 18.671875 -34.0625 C 19.128906 -34.0625 19.597656 -33.890625 20.078125 -33.546875 C 20.554688 -33.210938 20.816406 -32.835938 20.859375 -32.421875 L 16.078125 -26 C 14.203125 -23.488281 12.507812 -21.171875 11 -19.046875 C 9.5 -16.929688 8.203125 -15.03125 7.109375 -13.34375 C 6.566406 -12.476562 5.953125 -11.492188 5.265625 -10.390625 C 4.578125 -9.296875 3.972656 -8.164062 3.453125 -7 C 2.929688 -5.84375 2.671875 -4.671875 2.671875 -3.484375 C 2.671875 -2.941406 2.828125 -2.453125 3.140625 -2.015625 C 3.460938 -1.585938 4.035156 -1.375 4.859375 -1.375 C 6.316406 -1.375 8.226562 -2.160156 10.59375 -3.734375 C 12.96875 -5.304688 15.320312 -7.484375 17.65625 -10.265625 C 17.875 -10.535156 18.117188 -10.785156 18.390625 -11.015625 C 18.671875 -11.242188 18.898438 -11.359375 19.078125 -11.359375 C 19.304688 -11.359375 19.421875 -11.21875 19.421875 -10.9375 C 19.421875 -10.800781 19.269531 -10.539062 18.96875 -10.15625 C 18.675781 -9.769531 18.441406 -9.460938 18.265625 -9.234375 L 16.625 -7.390625 C 15.707031 -6.390625 14.625 -5.296875 13.375 -4.109375 C 12.125 -2.921875 10.800781 -1.914062 9.40625 -1.09375 C 8.007812 -0.269531 6.609375 0.140625 5.203125 0.140625 Z M 5.203125 0.140625 "/></g></g></g><g fill="#ab8742" fill-opacity="0.4"><g transform="translate(181.631094, 74.862701)"><g><path d="M 15.125 -23.53125 C 14.34375 -23.53125 13.664062 -23.78125 13.09375 -24.28125 C 12.53125 -24.78125 12.25 -25.351562 12.25 -26 C 12.25 -27.269531 13.113281 -27.90625 14.84375 -27.90625 C 15.476562 -27.90625 16.113281 -27.6875 16.75 -27.25 C 17.394531 -26.820312 17.71875 -26.289062 17.71875 -25.65625 C 17.71875 -25.101562 17.421875 -24.609375 16.828125 -24.171875 C 16.234375 -23.742188 15.664062 -23.53125 15.125 -23.53125 Z M 2.46875 0.75 C 1.457031 0.75 0.625 0.421875 -0.03125 -0.234375 C -0.695312 -0.898438 -1.03125 -2.078125 -1.03125 -3.765625 C -1.03125 -4.722656 -0.8125 -5.828125 -0.375 -7.078125 C 0.0625 -8.335938 0.609375 -9.601562 1.265625 -10.875 C 1.921875 -12.15625 2.570312 -13.296875 3.21875 -14.296875 C 5.769531 -18.441406 7.867188 -20.539062 9.515625 -20.59375 C 9.921875 -20.59375 10.421875 -20.421875 11.015625 -20.078125 C 11.609375 -19.734375 11.90625 -19.359375 11.90625 -18.953125 C 11.90625 -18.953125 10.171875 -16.71875 6.703125 -12.25 C 3.285156 -7.820312 1.578125 -4.671875 1.578125 -2.796875 C 1.578125 -1.335938 2.144531 -0.609375 3.28125 -0.609375 C 4.007812 -0.609375 4.953125 -0.914062 6.109375 -1.53125 C 7.273438 -2.15625 8.5 -2.941406 9.78125 -3.890625 C 11.0625 -4.847656 12.28125 -5.875 13.4375 -6.96875 C 14.601562 -8.070312 15.550781 -9.078125 16.28125 -9.984375 C 16.738281 -10.578125 17.132812 -10.988281 17.46875 -11.21875 C 17.8125 -11.445312 18.03125 -11.5625 18.125 -11.5625 C 18.3125 -11.5625 18.40625 -11.425781 18.40625 -11.15625 C 18.40625 -10.925781 18.140625 -10.46875 17.609375 -9.78125 C 17.085938 -9.09375 16.367188 -8.296875 15.453125 -7.390625 C 14.359375 -6.296875 13.148438 -5.109375 11.828125 -3.828125 C 10.503906 -2.554688 9.066406 -1.472656 7.515625 -0.578125 C 5.972656 0.304688 4.289062 0.75 2.46875 0.75 Z M 2.46875 0.75 "/></g></g></g><g fill="#ab8742" fill-opacity="0.4"><g transform="translate(197.09068, 74.862701)"><g><path d="M 15.796875 1.5 C 14.472656 1.5 13.160156 1.363281 11.859375 1.09375 C 10.566406 0.820312 9.394531 0.390625 8.34375 -0.203125 C 8.019531 -0.390625 7.550781 -0.6875 6.9375 -1.09375 C 6.320312 -1.5 5.535156 -2.066406 4.578125 -2.796875 C 3.847656 -2.296875 3.164062 -1.851562 2.53125 -1.46875 C 1.894531 -1.082031 1.28125 -0.890625 0.6875 -0.890625 C -0.363281 -0.890625 -0.890625 -1.457031 -0.890625 -2.59375 C -0.890625 -2.957031 -0.765625 -3.445312 -0.515625 -4.0625 C -0.265625 -4.6875 0.0195312 -5 0.34375 -5 C 0.570312 -5 0.6875 -4.835938 0.6875 -4.515625 C 0.6875 -4.285156 0.660156 -4.101562 0.609375 -3.96875 C 0.609375 -3.925781 0.597656 -3.867188 0.578125 -3.796875 C 0.554688 -3.722656 0.546875 -3.664062 0.546875 -3.625 C 0.546875 -3.164062 0.773438 -2.9375 1.234375 -2.9375 C 1.828125 -2.9375 2.488281 -3.210938 3.21875 -3.765625 L 0.609375 -5.75 C 0.523438 -5.84375 0.484375 -5.957031 0.484375 -6.09375 C 0.484375 -6.40625 0.707031 -6.773438 1.15625 -7.203125 C 1.613281 -7.640625 2.023438 -7.859375 2.390625 -7.859375 C 2.523438 -7.859375 3.578125 -7.085938 5.546875 -5.546875 C 7.367188 -7.597656 9.257812 -9.625 11.21875 -11.625 C 12.675781 -13.175781 13.960938 -14.5 15.078125 -15.59375 C 16.203125 -16.6875 17.171875 -17.53125 17.984375 -18.125 C 14.390625 -19.21875 11.722656 -19.765625 9.984375 -19.765625 C 8.890625 -19.765625 8 -19.523438 7.3125 -19.046875 C 6.632812 -18.566406 6.296875 -17.960938 6.296875 -17.234375 C 6.296875 -16.640625 6.613281 -16.09375 7.25 -15.59375 C 7.613281 -15.320312 7.796875 -15.09375 7.796875 -14.90625 C 7.796875 -14.632812 7.679688 -14.5 7.453125 -14.5 C 6.992188 -14.5 6.378906 -14.957031 5.609375 -15.875 C 4.878906 -16.78125 4.515625 -17.710938 4.515625 -18.671875 C 4.515625 -19.628906 4.867188 -20.359375 5.578125 -20.859375 C 6.285156 -21.359375 7.160156 -21.695312 8.203125 -21.875 C 9.253906 -22.0625 10.28125 -22.15625 11.28125 -22.15625 C 12.738281 -22.15625 14.332031 -21.878906 16.0625 -21.328125 C 17.800781 -20.785156 19.515625 -20.242188 21.203125 -19.703125 C 21.835938 -20.066406 22.523438 -20.25 23.265625 -20.25 C 25.171875 -20.25 26.125 -19.675781 26.125 -18.53125 C 26.125 -18.082031 25.835938 -17.660156 25.265625 -17.265625 C 24.703125 -16.878906 24.007812 -16.6875 23.1875 -16.6875 C 22.320312 -16.6875 21.546875 -16.847656 20.859375 -17.171875 C 16.578125 -14.523438 11.925781 -10.285156 6.90625 -4.453125 L 9.375 -2.53125 C 10.414062 -1.757812 11.5625 -1.242188 12.8125 -0.984375 C 14.070312 -0.734375 15.316406 -0.609375 16.546875 -0.609375 C 18.554688 -0.609375 20.269531 -0.972656 21.6875 -1.703125 C 23.101562 -2.429688 23.8125 -3.53125 23.8125 -5 C 23.8125 -5.59375 23.71875 -6.09375 23.53125 -6.5 C 23.4375 -6.769531 23.390625 -6.929688 23.390625 -6.984375 C 23.390625 -7.296875 23.617188 -7.453125 24.078125 -7.453125 C 24.304688 -7.453125 24.46875 -7.335938 24.5625 -7.109375 C 24.925781 -6.296875 25.109375 -5.519531 25.109375 -4.78125 C 25.109375 -2.957031 24.25 -1.453125 22.53125 -0.265625 C 20.820312 0.910156 18.578125 1.5 15.796875 1.5 Z M 15.796875 1.5 "/></g></g></g><g fill="#ab8742" fill-opacity="0.4"><g transform="translate(223.495107, 74.862701)"><g><path d="M 3.484375 0.890625 C 2.023438 0.890625 0.707031 0.421875 -0.46875 -0.515625 C -1.65625 -1.453125 -2.25 -2.691406 -2.25 -4.234375 C -2.25 -7.472656 -0.269531 -11.171875 3.6875 -15.328125 C 7.75 -19.515625 11.378906 -21.609375 14.578125 -21.609375 C 15.617188 -21.609375 16.46875 -21.320312 17.125 -20.75 C 17.789062 -20.1875 18.125 -19.492188 18.125 -18.671875 C 18.125 -16.117188 16.097656 -13.613281 12.046875 -11.15625 C 8.441406 -8.957031 5.40625 -7.859375 2.9375 -7.859375 C 2.570312 -7.859375 2.253906 -7.90625 1.984375 -8 C 1.296875 -6.769531 0.953125 -5.472656 0.953125 -4.109375 C 0.953125 -1.734375 2.070312 -0.546875 4.3125 -0.546875 C 6.59375 -0.546875 9.535156 -2.070312 13.140625 -5.125 C 15.921875 -7.363281 18.289062 -9.738281 20.25 -12.25 C 20.65625 -12.789062 21.019531 -13.0625 21.34375 -13.0625 C 21.613281 -13.0625 21.75 -12.925781 21.75 -12.65625 C 21.75 -12.382812 21.566406 -12 21.203125 -11.5 C 19.929688 -9.8125 18.5625 -8.257812 17.09375 -6.84375 C 15.632812 -5.425781 14.0625 -4.125 12.375 -2.9375 C 8.863281 -0.382812 5.898438 0.890625 3.484375 0.890625 Z M 3.90625 -9.375 C 5.632812 -9.375 7.890625 -10.238281 10.671875 -11.96875 C 11.585938 -12.601562 12.488281 -13.320312 13.375 -14.125 C 14.257812 -14.925781 14.988281 -15.734375 15.5625 -16.546875 C 16.132812 -17.367188 16.421875 -18.101562 16.421875 -18.75 C 16.421875 -19.332031 15.941406 -19.625 14.984375 -19.625 C 13.609375 -19.625 11.691406 -18.597656 9.234375 -16.546875 C 8.046875 -15.546875 6.90625 -14.453125 5.8125 -13.265625 C 4.71875 -12.085938 3.785156 -10.835938 3.015625 -9.515625 C 3.285156 -9.421875 3.582031 -9.375 3.90625 -9.375 Z M 3.90625 -9.375 "/></g></g></g><g fill="#ab8742" fill-opacity="1"><g transform="translate(44.875621, 71.839517)"><g><path d="M 12.109375 4.71875 C 4.992188 4.71875 1.4375 0.523438 1.4375 -7.859375 C 1.4375 -14.796875 3.285156 -20.382812 6.984375 -24.625 C 10.078125 -28.269531 13.632812 -30.09375 17.65625 -30.09375 C 19.882812 -30.09375 21.648438 -29.5 22.953125 -28.3125 C 24.253906 -27.132812 24.90625 -25.425781 24.90625 -23.1875 C 24.90625 -19.632812 23.535156 -16.03125 20.796875 -12.375 C 17.960938 -8.59375 15.085938 -6.703125 12.171875 -6.703125 C 10.484375 -6.703125 9.238281 -7.203125 8.4375 -8.203125 C 7.644531 -9.210938 7.25 -10.421875 7.25 -11.828125 C 7.25 -12.742188 7.429688 -13.75 7.796875 -14.84375 C 8.296875 -16.164062 8.820312 -16.828125 9.375 -16.828125 C 9.78125 -16.828125 9.984375 -16.625 9.984375 -16.21875 C 9.984375 -15.988281 9.78125 -15.394531 9.375 -14.4375 C 9.050781 -13.75 8.890625 -13.039062 8.890625 -12.3125 C 8.890625 -11.351562 9.195312 -10.585938 9.8125 -10.015625 C 10.425781 -9.453125 11.238281 -9.171875 12.25 -9.171875 C 14.9375 -9.171875 17.46875 -10.878906 19.84375 -14.296875 C 22.070312 -17.484375 23.1875 -20.65625 23.1875 -23.8125 C 23.1875 -25.445312 22.785156 -26.707031 21.984375 -27.59375 C 21.191406 -28.488281 20.113281 -28.9375 18.75 -28.9375 C 15.507812 -28.9375 12.269531 -26.703125 9.03125 -22.234375 C 5.695312 -17.441406 4.125 -12.175781 4.3125 -6.4375 C 4.40625 -3.875 5.097656 -1.707031 6.390625 0.0625 C 7.691406 1.84375 9.4375 2.734375 11.625 2.734375 C 17.78125 2.734375 25.648438 -5.453125 35.234375 -21.828125 C 30.210938 -23.328125 27.703125 -26.289062 27.703125 -30.71875 C 27.703125 -33.675781 28.5 -36.351562 30.09375 -38.75 C 31.695312 -41.144531 33.890625 -43.164062 36.671875 -44.8125 C 40.453125 -47 44.144531 -48.09375 47.75 -48.09375 C 49.707031 -48.09375 51.609375 -47.851562 53.453125 -47.375 C 55.304688 -46.894531 56.847656 -46.140625 58.078125 -45.109375 C 59.304688 -44.085938 59.921875 -42.753906 59.921875 -41.109375 C 59.921875 -40.566406 59.796875 -40.039062 59.546875 -39.53125 C 59.296875 -39.03125 59.035156 -38.78125 58.765625 -38.78125 C 58.804688 -38.78125 58.597656 -38.925781 58.140625 -39.21875 C 57.691406 -39.519531 57.191406 -39.671875 56.640625 -39.671875 C 52.765625 -39.671875 47.453125 -33.90625 40.703125 -22.375 C 40.878906 -22.320312 41.054688 -22.296875 41.234375 -22.296875 C 41.421875 -22.296875 41.609375 -22.296875 41.796875 -22.296875 C 42.929688 -22.296875 44.035156 -22.5 45.109375 -22.90625 C 46.179688 -23.320312 47.070312 -23.894531 47.78125 -24.625 C 48.488281 -25.351562 48.84375 -26.175781 48.84375 -27.09375 C 48.84375 -27.457031 48.757812 -27.832031 48.59375 -28.21875 C 48.4375 -28.601562 48.359375 -28.84375 48.359375 -28.9375 C 48.359375 -29.300781 48.539062 -29.484375 48.90625 -29.484375 C 49.09375 -29.484375 49.273438 -29.414062 49.453125 -29.28125 C 50.503906 -28.5 51.03125 -27.539062 51.03125 -26.40625 C 51.03125 -25.257812 50.597656 -24.253906 49.734375 -23.390625 C 48.867188 -22.523438 47.757812 -21.851562 46.40625 -21.375 C 45.0625 -20.894531 43.707031 -20.65625 42.34375 -20.65625 C 41.570312 -20.65625 40.796875 -20.722656 40.015625 -20.859375 C 36.867188 -15.066406 33.039062 -9.734375 28.53125 -4.859375 C 22.507812 1.523438 17.035156 4.71875 12.109375 4.71875 Z M 36.390625 -23.53125 C 38.898438 -27.632812 41.957031 -31.535156 45.5625 -35.234375 C 49.894531 -39.703125 53.382812 -41.9375 56.03125 -41.9375 C 56.707031 -41.9375 57.296875 -41.773438 57.796875 -41.453125 C 57.753906 -42.316406 57.34375 -43.101562 56.5625 -43.8125 C 55.789062 -44.519531 54.867188 -45.078125 53.796875 -45.484375 C 52.722656 -45.898438 51.707031 -46.128906 50.75 -46.171875 C 47.75 -46.304688 44.5625 -45.625 41.1875 -44.125 C 38.3125 -42.84375 35.945312 -40.914062 34.09375 -38.34375 C 32.25 -35.769531 31.328125 -32.796875 31.328125 -29.421875 C 31.328125 -26.128906 33.015625 -24.164062 36.390625 -23.53125 Z M 36.390625 -23.53125 "/></g></g></g><g fill="#ab8742" fill-opacity="1"><g transform="translate(84.277048, 71.839517)"><g><path d="M 4.578125 0.34375 C 3.210938 0.34375 2.050781 -0.03125 1.09375 -0.78125 C 0.132812 -1.539062 -0.410156 -2.46875 -0.546875 -3.5625 C -0.734375 -5.019531 -0.519531 -6.488281 0.09375 -7.96875 C 0.71875 -9.445312 1.5625 -10.867188 2.625 -12.234375 C 3.695312 -13.609375 4.851562 -14.890625 6.09375 -16.078125 C 10.925781 -20.910156 15.28125 -23.328125 19.15625 -23.328125 C 20.476562 -23.328125 21.367188 -22.984375 21.828125 -22.296875 C 22.003906 -22.066406 22.207031 -21.546875 22.4375 -20.734375 C 27.539062 -29.023438 31.097656 -33.171875 33.109375 -33.171875 C 33.566406 -33.171875 34.046875 -33.054688 34.546875 -32.828125 C 35.046875 -32.609375 35.296875 -32.316406 35.296875 -31.953125 C 35.296875 -31.722656 35.179688 -31.425781 34.953125 -31.0625 C 33.585938 -29.375 32.21875 -27.695312 30.84375 -26.03125 C 29.476562 -24.363281 28.132812 -22.6875 26.8125 -21 C 24.582031 -18.175781 22.78125 -15.710938 21.40625 -13.609375 C 20.039062 -11.515625 19.0625 -9.738281 18.46875 -8.28125 C 18.289062 -7.820312 18.117188 -7.257812 17.953125 -6.59375 C 17.796875 -5.9375 17.71875 -5.265625 17.71875 -4.578125 C 17.71875 -3.710938 17.898438 -2.960938 18.265625 -2.328125 C 18.628906 -1.691406 19.289062 -1.375 20.25 -1.375 C 21.75 -1.375 23.59375 -2.101562 25.78125 -3.5625 C 27.976562 -5.019531 30.535156 -7.410156 33.453125 -10.734375 C 33.628906 -10.921875 33.796875 -11.082031 33.953125 -11.21875 C 34.117188 -11.351562 34.296875 -11.445312 34.484375 -11.5 C 34.890625 -11.582031 35.09375 -11.488281 35.09375 -11.21875 C 35.09375 -11.082031 34.957031 -10.832031 34.6875 -10.46875 C 33.269531 -8.78125 31.691406 -7.113281 29.953125 -5.46875 C 28.222656 -3.832031 26.457031 -2.476562 24.65625 -1.40625 C 22.851562 -0.332031 21.175781 0.203125 19.625 0.203125 C 18.082031 0.203125 16.988281 -0.316406 16.34375 -1.359375 C 15.707031 -2.410156 15.390625 -3.597656 15.390625 -4.921875 C 15.390625 -6.296875 15.640625 -7.550781 16.140625 -8.6875 L 10.609375 -3.140625 C 9.367188 -1.910156 8.234375 -1.019531 7.203125 -0.46875 C 6.179688 0.0703125 5.304688 0.34375 4.578125 0.34375 Z M 3.96875 -1.15625 C 5.925781 -1.15625 9.1875 -3.847656 13.75 -9.234375 C 13.976562 -9.503906 14.773438 -10.515625 16.140625 -12.265625 C 17.515625 -14.023438 19.453125 -16.59375 21.953125 -19.96875 C 21.640625 -20.519531 21.09375 -20.796875 20.3125 -20.796875 C 17.488281 -20.796875 13.707031 -18.5625 8.96875 -14.09375 C 4.488281 -9.9375 2.25 -6.445312 2.25 -3.625 C 2.25 -1.976562 2.820312 -1.15625 3.96875 -1.15625 Z M 3.96875 -1.15625 "/></g></g></g><g fill="#ab8742" fill-opacity="1"><g transform="translate(116.222305, 71.839517)"><g><path d="M 3.484375 0.890625 C 2.023438 0.890625 0.707031 0.421875 -0.46875 -0.515625 C -1.65625 -1.453125 -2.25 -2.691406 -2.25 -4.234375 C -2.25 -7.472656 -0.269531 -11.171875 3.6875 -15.328125 C 7.75 -19.515625 11.378906 -21.609375 14.578125 -21.609375 C 15.617188 -21.609375 16.46875 -21.320312 17.125 -20.75 C 17.789062 -20.1875 18.125 -19.492188 18.125 -18.671875 C 18.125 -16.117188 16.097656 -13.613281 12.046875 -11.15625 C 8.441406 -8.957031 5.40625 -7.859375 2.9375 -7.859375 C 2.570312 -7.859375 2.253906 -7.90625 1.984375 -8 C 1.296875 -6.769531 0.953125 -5.472656 0.953125 -4.109375 C 0.953125 -1.734375 2.070312 -0.546875 4.3125 -0.546875 C 6.59375 -0.546875 9.535156 -2.070312 13.140625 -5.125 C 15.921875 -7.363281 18.289062 -9.738281 20.25 -12.25 C 20.65625 -12.789062 21.019531 -13.0625 21.34375 -13.0625 C 21.613281 -13.0625 21.75 -12.925781 21.75 -12.65625 C 21.75 -12.382812 21.566406 -12 21.203125 -11.5 C 19.929688 -9.8125 18.5625 -8.257812 17.09375 -6.84375 C 15.632812 -5.425781 14.0625 -4.125 12.375 -2.9375 C 8.863281 -0.382812 5.898438 0.890625 3.484375 0.890625 Z M 3.90625 -9.375 C 5.632812 -9.375 7.890625 -10.238281 10.671875 -11.96875 C 11.585938 -12.601562 12.488281 -13.320312 13.375 -14.125 C 14.257812 -14.925781 14.988281 -15.734375 15.5625 -16.546875 C 16.132812 -17.367188 16.421875 -18.101562 16.421875 -18.75 C 16.421875 -19.332031 15.941406 -19.625 14.984375 -19.625 C 13.609375 -19.625 11.691406 -18.597656 9.234375 -16.546875 C 8.046875 -15.546875 6.90625 -14.453125 5.8125 -13.265625 C 4.71875 -12.085938 3.785156 -10.835938 3.015625 -9.515625 C 3.285156 -9.421875 3.582031 -9.375 3.90625 -9.375 Z M 3.90625 -9.375 "/></g></g></g><g fill="#ab8742" fill-opacity="1"><g transform="translate(133.802459, 71.839517)"><g><path d="M 4.578125 0.34375 C 3.484375 0.34375 2.390625 -0.0390625 1.296875 -0.8125 C 0.203125 -1.59375 -0.410156 -2.507812 -0.546875 -3.5625 C -1.003906 -7.070312 1.207031 -11.242188 6.09375 -16.078125 C 10.925781 -20.910156 15.28125 -23.328125 19.15625 -23.328125 C 20.207031 -23.328125 21.023438 -23.078125 21.609375 -22.578125 C 21.929688 -22.253906 22.171875 -21.816406 22.328125 -21.265625 C 22.492188 -20.722656 22.617188 -20.453125 22.703125 -20.453125 C 22.890625 -20.453125 23.050781 -20.484375 23.1875 -20.546875 C 23.320312 -20.617188 23.484375 -20.65625 23.671875 -20.65625 C 24.210938 -20.65625 24.6875 -20.445312 25.09375 -20.03125 C 25.507812 -19.625 25.742188 -19.265625 25.796875 -18.953125 C 25.835938 -18.859375 24.375 -16.597656 21.40625 -12.171875 C 18.445312 -7.835938 17.101562 -4.898438 17.375 -3.359375 C 17.601562 -2.304688 18.101562 -1.78125 18.875 -1.78125 C 21.25 -1.78125 25.582031 -5.703125 31.875 -13.546875 C 32.007812 -13.722656 32.144531 -13.8125 32.28125 -13.8125 C 32.507812 -13.8125 32.625 -13.65625 32.625 -13.34375 C 32.625 -12.976562 32.421875 -12.519531 32.015625 -11.96875 C 26.222656 -4.175781 21.773438 -0.28125 18.671875 -0.28125 C 18.265625 -0.28125 17.878906 -0.347656 17.515625 -0.484375 C 15.503906 -1.253906 14.5 -2.757812 14.5 -5 C 14.5 -5.769531 14.59375 -6.539062 14.78125 -7.3125 L 10.53125 -3.21875 C 9.257812 -1.9375 8.109375 -1.019531 7.078125 -0.46875 C 6.054688 0.0703125 5.222656 0.34375 4.578125 0.34375 Z M 3.96875 -1.15625 C 6.613281 -1.15625 10.21875 -4.050781 14.78125 -9.84375 L 22.03125 -19.84375 C 21.664062 -20.476562 21.070312 -20.796875 20.25 -20.796875 C 17.46875 -20.796875 13.707031 -18.5625 8.96875 -14.09375 C 4.039062 -9.53125 1.828125 -5.765625 2.328125 -2.796875 C 2.554688 -1.703125 3.101562 -1.15625 3.96875 -1.15625 Z M 3.96875 -1.15625 "/></g></g></g><g fill="#ab8742" fill-opacity="1"><g transform="translate(161.98543, 71.839517)"><g><path d="M 5.203125 0.140625 C 3.878906 0.140625 2.644531 -0.1875 1.5 -0.84375 C 0.363281 -1.507812 -0.203125 -2.617188 -0.203125 -4.171875 C -0.203125 -6.316406 0.554688 -8.867188 2.078125 -11.828125 C 3.609375 -14.796875 5.351562 -17.875 7.3125 -21.0625 C 12.65625 -29.726562 16.441406 -34.0625 18.671875 -34.0625 C 19.128906 -34.0625 19.597656 -33.890625 20.078125 -33.546875 C 20.554688 -33.210938 20.816406 -32.835938 20.859375 -32.421875 L 16.078125 -26 C 14.203125 -23.488281 12.507812 -21.171875 11 -19.046875 C 9.5 -16.929688 8.203125 -15.03125 7.109375 -13.34375 C 6.566406 -12.476562 5.953125 -11.492188 5.265625 -10.390625 C 4.578125 -9.296875 3.972656 -8.164062 3.453125 -7 C 2.929688 -5.84375 2.671875 -4.671875 2.671875 -3.484375 C 2.671875 -2.941406 2.828125 -2.453125 3.140625 -2.015625 C 3.460938 -1.585938 4.035156 -1.375 4.859375 -1.375 C 6.316406 -1.375 8.226562 -2.160156 10.59375 -3.734375 C 12.96875 -5.304688 15.320312 -7.484375 17.65625 -10.265625 C 17.875 -10.535156 18.117188 -10.785156 18.390625 -11.015625 C 18.671875 -11.242188 18.898438 -11.359375 19.078125 -11.359375 C 19.304688 -11.359375 19.421875 -11.21875 19.421875 -10.9375 C 19.421875 -10.800781 19.269531 -10.539062 18.96875 -10.15625 C 18.675781 -9.769531 18.441406 -9.460938 18.265625 -9.234375 L 16.625 -7.390625 C 15.707031 -6.390625 14.625 -5.296875 13.375 -4.109375 C 12.125 -2.921875 10.800781 -1.914062 9.40625 -1.09375 C 8.007812 -0.269531 6.609375 0.140625 5.203125 0.140625 Z M 5.203125 0.140625 "/></g></g></g><g fill="#ab8742" fill-opacity="1"><g transform="translate(178.607908, 71.839517)"><g><path d="M 15.125 -23.53125 C 14.34375 -23.53125 13.664062 -23.78125 13.09375 -24.28125 C 12.53125 -24.78125 12.25 -25.351562 12.25 -26 C 12.25 -27.269531 13.113281 -27.90625 14.84375 -27.90625 C 15.476562 -27.90625 16.113281 -27.6875 16.75 -27.25 C 17.394531 -26.820312 17.71875 -26.289062 17.71875 -25.65625 C 17.71875 -25.101562 17.421875 -24.609375 16.828125 -24.171875 C 16.234375 -23.742188 15.664062 -23.53125 15.125 -23.53125 Z M 2.46875 0.75 C 1.457031 0.75 0.625 0.421875 -0.03125 -0.234375 C -0.695312 -0.898438 -1.03125 -2.078125 -1.03125 -3.765625 C -1.03125 -4.722656 -0.8125 -5.828125 -0.375 -7.078125 C 0.0625 -8.335938 0.609375 -9.601562 1.265625 -10.875 C 1.921875 -12.15625 2.570312 -13.296875 3.21875 -14.296875 C 5.769531 -18.441406 7.867188 -20.539062 9.515625 -20.59375 C 9.921875 -20.59375 10.421875 -20.421875 11.015625 -20.078125 C 11.609375 -19.734375 11.90625 -19.359375 11.90625 -18.953125 C 11.90625 -18.953125 10.171875 -16.71875 6.703125 -12.25 C 3.285156 -7.820312 1.578125 -4.671875 1.578125 -2.796875 C 1.578125 -1.335938 2.144531 -0.609375 3.28125 -0.609375 C 4.007812 -0.609375 4.953125 -0.914062 6.109375 -1.53125 C 7.273438 -2.15625 8.5 -2.941406 9.78125 -3.890625 C 11.0625 -4.847656 12.28125 -5.875 13.4375 -6.96875 C 14.601562 -8.070312 15.550781 -9.078125 16.28125 -9.984375 C 16.738281 -10.578125 17.132812 -10.988281 17.46875 -11.21875 C 17.8125 -11.445312 18.03125 -11.5625 18.125 -11.5625 C 18.3125 -11.5625 18.40625 -11.425781 18.40625 -11.15625 C 18.40625 -10.925781 18.140625 -10.46875 17.609375 -9.78125 C 17.085938 -9.09375 16.367188 -8.296875 15.453125 -7.390625 C 14.359375 -6.296875 13.148438 -5.109375 11.828125 -3.828125 C 10.503906 -2.554688 9.066406 -1.472656 7.515625 -0.578125 C 5.972656 0.304688 4.289062 0.75 2.46875 0.75 Z M 2.46875 0.75 "/></g></g></g><g fill="#ab8742" fill-opacity="1"><g transform="translate(194.067494, 71.839517)"><g><path d="M 15.796875 1.5 C 14.472656 1.5 13.160156 1.363281 11.859375 1.09375 C 10.566406 0.820312 9.394531 0.390625 8.34375 -0.203125 C 8.019531 -0.390625 7.550781 -0.6875 6.9375 -1.09375 C 6.320312 -1.5 5.535156 -2.066406 4.578125 -2.796875 C 3.847656 -2.296875 3.164062 -1.851562 2.53125 -1.46875 C 1.894531 -1.082031 1.28125 -0.890625 0.6875 -0.890625 C -0.363281 -0.890625 -0.890625 -1.457031 -0.890625 -2.59375 C -0.890625 -2.957031 -0.765625 -3.445312 -0.515625 -4.0625 C -0.265625 -4.6875 0.0195312 -5 0.34375 -5 C 0.570312 -5 0.6875 -4.835938 0.6875 -4.515625 C 0.6875 -4.285156 0.660156 -4.101562 0.609375 -3.96875 C 0.609375 -3.925781 0.597656 -3.867188 0.578125 -3.796875 C 0.554688 -3.722656 0.546875 -3.664062 0.546875 -3.625 C 0.546875 -3.164062 0.773438 -2.9375 1.234375 -2.9375 C 1.828125 -2.9375 2.488281 -3.210938 3.21875 -3.765625 L 0.609375 -5.75 C 0.523438 -5.84375 0.484375 -5.957031 0.484375 -6.09375 C 0.484375 -6.40625 0.707031 -6.773438 1.15625 -7.203125 C 1.613281 -7.640625 2.023438 -7.859375 2.390625 -7.859375 C 2.523438 -7.859375 3.578125 -7.085938 5.546875 -5.546875 C 7.367188 -7.597656 9.257812 -9.625 11.21875 -11.625 C 12.675781 -13.175781 13.960938 -14.5 15.078125 -15.59375 C 16.203125 -16.6875 17.171875 -17.53125 17.984375 -18.125 C 14.390625 -19.21875 11.722656 -19.765625 9.984375 -19.765625 C 8.890625 -19.765625 8 -19.523438 7.3125 -19.046875 C 6.632812 -18.566406 6.296875 -17.960938 6.296875 -17.234375 C 6.296875 -16.640625 6.613281 -16.09375 7.25 -15.59375 C 7.613281 -15.320312 7.796875 -15.09375 7.796875 -14.90625 C 7.796875 -14.632812 7.679688 -14.5 7.453125 -14.5 C 6.992188 -14.5 6.378906 -14.957031 5.609375 -15.875 C 4.878906 -16.78125 4.515625 -17.710938 4.515625 -18.671875 C 4.515625 -19.628906 4.867188 -20.359375 5.578125 -20.859375 C 6.285156 -21.359375 7.160156 -21.695312 8.203125 -21.875 C 9.253906 -22.0625 10.28125 -22.15625 11.28125 -22.15625 C 12.738281 -22.15625 14.332031 -21.878906 16.0625 -21.328125 C 17.800781 -20.785156 19.515625 -20.242188 21.203125 -19.703125 C 21.835938 -20.066406 22.523438 -20.25 23.265625 -20.25 C 25.171875 -20.25 26.125 -19.675781 26.125 -18.53125 C 26.125 -18.082031 25.835938 -17.660156 25.265625 -17.265625 C 24.703125 -16.878906 24.007812 -16.6875 23.1875 -16.6875 C 22.320312 -16.6875 21.546875 -16.847656 20.859375 -17.171875 C 16.578125 -14.523438 11.925781 -10.285156 6.90625 -4.453125 L 9.375 -2.53125 C 10.414062 -1.757812 11.5625 -1.242188 12.8125 -0.984375 C 14.070312 -0.734375 15.316406 -0.609375 16.546875 -0.609375 C 18.554688 -0.609375 20.269531 -0.972656 21.6875 -1.703125 C 23.101562 -2.429688 23.8125 -3.53125 23.8125 -5 C 23.8125 -5.59375 23.71875 -6.09375 23.53125 -6.5 C 23.4375 -6.769531 23.390625 -6.929688 23.390625 -6.984375 C 23.390625 -7.296875 23.617188 -7.453125 24.078125 -7.453125 C 24.304688 -7.453125 24.46875 -7.335938 24.5625 -7.109375 C 24.925781 -6.296875 25.109375 -5.519531 25.109375 -4.78125 C 25.109375 -2.957031 24.25 -1.453125 22.53125 -0.265625 C 20.820312 0.910156 18.578125 1.5 15.796875 1.5 Z M 15.796875 1.5 "/></g></g></g><g fill="#ab8742" fill-opacity="1"><g transform="translate(220.471921, 71.839517)"><g><path d="M 3.484375 0.890625 C 2.023438 0.890625 0.707031 0.421875 -0.46875 -0.515625 C -1.65625 -1.453125 -2.25 -2.691406 -2.25 -4.234375 C -2.25 -7.472656 -0.269531 -11.171875 3.6875 -15.328125 C 7.75 -19.515625 11.378906 -21.609375 14.578125 -21.609375 C 15.617188 -21.609375 16.46875 -21.320312 17.125 -20.75 C 17.789062 -20.1875 18.125 -19.492188 18.125 -18.671875 C 18.125 -16.117188 16.097656 -13.613281 12.046875 -11.15625 C 8.441406 -8.957031 5.40625 -7.859375 2.9375 -7.859375 C 2.570312 -7.859375 2.253906 -7.90625 1.984375 -8 C 1.296875 -6.769531 0.953125 -5.472656 0.953125 -4.109375 C 0.953125 -1.734375 2.070312 -0.546875 4.3125 -0.546875 C 6.59375 -0.546875 9.535156 -2.070312 13.140625 -5.125 C 15.921875 -7.363281 18.289062 -9.738281 20.25 -12.25 C 20.65625 -12.789062 21.019531 -13.0625 21.34375 -13.0625 C 21.613281 -13.0625 21.75 -12.925781 21.75 -12.65625 C 21.75 -12.382812 21.566406 -12 21.203125 -11.5 C 19.929688 -9.8125 18.5625 -8.257812 17.09375 -6.84375 C 15.632812 -5.425781 14.0625 -4.125 12.375 -2.9375 C 8.863281 -0.382812 5.898438 0.890625 3.484375 0.890625 Z M 3.90625 -9.375 C 5.632812 -9.375 7.890625 -10.238281 10.671875 -11.96875 C 11.585938 -12.601562 12.488281 -13.320312 13.375 -14.125 C 14.257812 -14.925781 14.988281 -15.734375 15.5625 -16.546875 C 16.132812 -17.367188 16.421875 -18.101562 16.421875 -18.75 C 16.421875 -19.332031 15.941406 -19.625 14.984375 -19.625 C 13.609375 -19.625 11.691406 -18.597656 9.234375 -16.546875 C 8.046875 -15.546875 6.90625 -14.453125 5.8125 -13.265625 C 4.71875 -12.085938 3.785156 -10.835938 3.015625 -9.515625 C 3.285156 -9.421875 3.582031 -9.375 3.90625 -9.375 Z M 3.90625 -9.375 "/></g></g></g><g fill="#ab8742" fill-opacity="1"><g transform="translate(55.180362, 90.941468)"><g><path d="M 6.5625 -4.03125 C 6.707031 -4.03125 6.828125 -3.984375 6.921875 -3.890625 C 7.023438 -3.796875 7.078125 -3.671875 7.078125 -3.515625 L 7.078125 -1.140625 C 7.078125 -0.972656 7.023438 -0.847656 6.921875 -0.765625 C 6.222656 -0.191406 5.410156 0.09375 4.484375 0.09375 C 3.765625 0.09375 3.113281 -0.078125 2.53125 -0.421875 C 1.945312 -0.773438 1.484375 -1.253906 1.140625 -1.859375 C 0.804688 -2.472656 0.640625 -3.148438 0.640625 -3.890625 C 0.640625 -4.617188 0.804688 -5.285156 1.140625 -5.890625 C 1.484375 -6.503906 1.945312 -6.988281 2.53125 -7.34375 C 3.113281 -7.695312 3.765625 -7.875 4.484375 -7.875 C 4.984375 -7.875 5.414062 -7.804688 5.78125 -7.671875 C 6.15625 -7.535156 6.53125 -7.316406 6.90625 -7.015625 C 6.988281 -6.953125 7.039062 -6.890625 7.0625 -6.828125 C 7.09375 -6.765625 7.109375 -6.691406 7.109375 -6.609375 C 7.109375 -6.472656 7.054688 -6.363281 6.953125 -6.28125 C 6.859375 -6.195312 6.75 -6.15625 6.625 -6.15625 C 6.5 -6.15625 6.382812 -6.195312 6.28125 -6.28125 C 6.007812 -6.507812 5.742188 -6.675781 5.484375 -6.78125 C 5.222656 -6.882812 4.890625 -6.9375 4.484375 -6.9375 C 3.960938 -6.9375 3.484375 -6.800781 3.046875 -6.53125 C 2.617188 -6.257812 2.273438 -5.890625 2.015625 -5.421875 C 1.753906 -4.953125 1.625 -4.441406 1.625 -3.890625 C 1.625 -3.335938 1.753906 -2.828125 2.015625 -2.359375 C 2.273438 -1.890625 2.617188 -1.519531 3.046875 -1.25 C 3.484375 -0.976562 3.960938 -0.84375 4.484375 -0.84375 C 5.035156 -0.84375 5.566406 -1.007812 6.078125 -1.34375 L 6.078125 -3.109375 L 4.703125 -3.109375 C 4.554688 -3.109375 4.429688 -3.148438 4.328125 -3.234375 C 4.234375 -3.328125 4.1875 -3.441406 4.1875 -3.578125 C 4.1875 -3.703125 4.234375 -3.804688 4.328125 -3.890625 C 4.429688 -3.984375 4.554688 -4.03125 4.703125 -4.03125 Z M 6.5625 -4.03125 "/></g></g></g><g fill="#ab8742" fill-opacity="1"><g transform="translate(65.105935, 90.941468)"><g><path d="M 5.78125 -2.8125 C 5.78125 -2.6875 5.738281 -2.582031 5.65625 -2.5 C 5.570312 -2.414062 5.460938 -2.375 5.328125 -2.375 L 1.546875 -2.375 C 1.617188 -1.90625 1.828125 -1.523438 2.171875 -1.234375 C 2.523438 -0.953125 2.953125 -0.8125 3.453125 -0.8125 C 3.648438 -0.8125 3.859375 -0.847656 4.078125 -0.921875 C 4.296875 -0.992188 4.472656 -1.082031 4.609375 -1.1875 C 4.703125 -1.257812 4.8125 -1.296875 4.9375 -1.296875 C 5.0625 -1.296875 5.160156 -1.265625 5.234375 -1.203125 C 5.359375 -1.109375 5.421875 -0.992188 5.421875 -0.859375 C 5.421875 -0.742188 5.363281 -0.644531 5.25 -0.5625 C 5.03125 -0.382812 4.75 -0.238281 4.40625 -0.125 C 4.070312 -0.0078125 3.753906 0.046875 3.453125 0.046875 C 2.910156 0.046875 2.421875 -0.0703125 1.984375 -0.3125 C 1.554688 -0.550781 1.21875 -0.878906 0.96875 -1.296875 C 0.726562 -1.710938 0.609375 -2.1875 0.609375 -2.71875 C 0.609375 -3.25 0.722656 -3.722656 0.953125 -4.140625 C 1.179688 -4.566406 1.5 -4.894531 1.90625 -5.125 C 2.320312 -5.363281 2.785156 -5.484375 3.296875 -5.484375 C 3.816406 -5.484375 4.257812 -5.367188 4.625 -5.140625 C 5 -4.921875 5.285156 -4.609375 5.484375 -4.203125 C 5.679688 -3.796875 5.78125 -3.332031 5.78125 -2.8125 Z M 3.296875 -4.625 C 2.816406 -4.625 2.425781 -4.488281 2.125 -4.21875 C 1.820312 -3.957031 1.628906 -3.609375 1.546875 -3.171875 L 4.859375 -3.171875 C 4.804688 -3.609375 4.644531 -3.957031 4.375 -4.21875 C 4.101562 -4.488281 3.742188 -4.625 3.296875 -4.625 Z M 3.296875 -4.625 "/></g></g></g><g fill="#ab8742" fill-opacity="1"><g transform="translate(73.480449, 90.941468)"><g><path d="M 3.5625 -5.5 C 3.914062 -5.5 4.191406 -5.445312 4.390625 -5.34375 C 4.585938 -5.238281 4.6875 -5.109375 4.6875 -4.953125 C 4.6875 -4.898438 4.679688 -4.863281 4.671875 -4.84375 C 4.617188 -4.632812 4.488281 -4.53125 4.28125 -4.53125 C 4.25 -4.53125 4.195312 -4.535156 4.125 -4.546875 C 3.863281 -4.597656 3.648438 -4.625 3.484375 -4.625 C 3.003906 -4.625 2.617188 -4.515625 2.328125 -4.296875 C 2.035156 -4.078125 1.890625 -3.78125 1.890625 -3.40625 L 1.890625 -0.5 C 1.890625 -0.34375 1.847656 -0.21875 1.765625 -0.125 C 1.679688 -0.0390625 1.554688 0 1.390625 0 C 1.234375 0 1.109375 -0.0390625 1.015625 -0.125 C 0.929688 -0.207031 0.890625 -0.332031 0.890625 -0.5 L 0.890625 -4.953125 C 0.890625 -5.109375 0.929688 -5.226562 1.015625 -5.3125 C 1.109375 -5.394531 1.234375 -5.4375 1.390625 -5.4375 C 1.722656 -5.4375 1.890625 -5.273438 1.890625 -4.953125 L 1.890625 -4.75 C 2.085938 -4.988281 2.332031 -5.171875 2.625 -5.296875 C 2.914062 -5.429688 3.226562 -5.5 3.5625 -5.5 Z M 3.5625 -5.5 "/></g></g></g><g fill="#ab8742" fill-opacity="1"><g transform="translate(80.512698, 90.941468)"><g><path d="M 5.78125 -2.8125 C 5.78125 -2.6875 5.738281 -2.582031 5.65625 -2.5 C 5.570312 -2.414062 5.460938 -2.375 5.328125 -2.375 L 1.546875 -2.375 C 1.617188 -1.90625 1.828125 -1.523438 2.171875 -1.234375 C 2.523438 -0.953125 2.953125 -0.8125 3.453125 -0.8125 C 3.648438 -0.8125 3.859375 -0.847656 4.078125 -0.921875 C 4.296875 -0.992188 4.472656 -1.082031 4.609375 -1.1875 C 4.703125 -1.257812 4.8125 -1.296875 4.9375 -1.296875 C 5.0625 -1.296875 5.160156 -1.265625 5.234375 -1.203125 C 5.359375 -1.109375 5.421875 -0.992188 5.421875 -0.859375 C 5.421875 -0.742188 5.363281 -0.644531 5.25 -0.5625 C 5.03125 -0.382812 4.75 -0.238281 4.40625 -0.125 C 4.070312 -0.0078125 3.753906 0.046875 3.453125 0.046875 C 2.910156 0.046875 2.421875 -0.0703125 1.984375 -0.3125 C 1.554688 -0.550781 1.21875 -0.878906 0.96875 -1.296875 C 0.726562 -1.710938 0.609375 -2.1875 0.609375 -2.71875 C 0.609375 -3.25 0.722656 -3.722656 0.953125 -4.140625 C 1.179688 -4.566406 1.5 -4.894531 1.90625 -5.125 C 2.320312 -5.363281 2.785156 -5.484375 3.296875 -5.484375 C 3.816406 -5.484375 4.257812 -5.367188 4.625 -5.140625 C 5 -4.921875 5.285156 -4.609375 5.484375 -4.203125 C 5.679688 -3.796875 5.78125 -3.332031 5.78125 -2.8125 Z M 3.296875 -4.625 C 2.816406 -4.625 2.425781 -4.488281 2.125 -4.21875 C 1.820312 -3.957031 1.628906 -3.609375 1.546875 -3.171875 L 4.859375 -3.171875 C 4.804688 -3.609375 4.644531 -3.957031 4.375 -4.21875 C 4.101562 -4.488281 3.742188 -4.625 3.296875 -4.625 Z M 3.296875 -4.625 "/></g></g></g><g fill="#ab8742" fill-opacity="1"><g transform="translate(88.88721, 90.941468)"><g><path d="M 3.609375 -5.5 C 4.066406 -5.5 4.476562 -5.394531 4.84375 -5.1875 C 5.207031 -4.988281 5.488281 -4.695312 5.6875 -4.3125 C 5.894531 -3.9375 6 -3.484375 6 -2.953125 L 6 -0.5 C 6 -0.351562 5.953125 -0.226562 5.859375 -0.125 C 5.765625 -0.03125 5.644531 0.015625 5.5 0.015625 C 5.351562 0.015625 5.226562 -0.03125 5.125 -0.125 C 5.03125 -0.226562 4.984375 -0.351562 4.984375 -0.5 L 4.984375 -2.953125 C 4.984375 -3.484375 4.835938 -3.882812 4.546875 -4.15625 C 4.265625 -4.4375 3.882812 -4.578125 3.40625 -4.578125 C 3.125 -4.578125 2.867188 -4.519531 2.640625 -4.40625 C 2.410156 -4.289062 2.226562 -4.132812 2.09375 -3.9375 C 1.96875 -3.75 1.90625 -3.535156 1.90625 -3.296875 L 1.90625 -0.5 C 1.90625 -0.351562 1.859375 -0.226562 1.765625 -0.125 C 1.671875 -0.03125 1.550781 0.015625 1.40625 0.015625 C 1.257812 0.015625 1.132812 -0.03125 1.03125 -0.125 C 0.9375 -0.226562 0.890625 -0.351562 0.890625 -0.5 L 0.890625 -4.9375 C 0.890625 -5.09375 0.9375 -5.210938 1.03125 -5.296875 C 1.132812 -5.390625 1.257812 -5.4375 1.40625 -5.4375 C 1.550781 -5.4375 1.671875 -5.390625 1.765625 -5.296875 C 1.859375 -5.210938 1.90625 -5.09375 1.90625 -4.9375 L 1.90625 -4.828125 C 2.125 -5.035156 2.378906 -5.195312 2.671875 -5.3125 C 2.960938 -5.4375 3.273438 -5.5 3.609375 -5.5 Z M 3.609375 -5.5 "/></g></g></g><g fill="#ab8742" fill-opacity="1"><g transform="translate(97.868229, 90.941468)"><g><path d="M 3.359375 0.046875 C 2.835938 0.046875 2.367188 -0.0703125 1.953125 -0.3125 C 1.535156 -0.550781 1.207031 -0.878906 0.96875 -1.296875 C 0.726562 -1.722656 0.609375 -2.195312 0.609375 -2.71875 C 0.609375 -3.25 0.722656 -3.722656 0.953125 -4.140625 C 1.179688 -4.566406 1.5 -4.894531 1.90625 -5.125 C 2.320312 -5.363281 2.789062 -5.484375 3.3125 -5.484375 C 4.09375 -5.484375 4.742188 -5.1875 5.265625 -4.59375 C 5.328125 -4.519531 5.359375 -4.429688 5.359375 -4.328125 C 5.359375 -4.179688 5.285156 -4.0625 5.140625 -3.96875 C 5.078125 -3.914062 5.003906 -3.890625 4.921875 -3.890625 C 4.765625 -3.890625 4.632812 -3.953125 4.53125 -4.078125 C 4.363281 -4.253906 4.179688 -4.382812 3.984375 -4.46875 C 3.785156 -4.550781 3.5625 -4.59375 3.3125 -4.59375 C 2.800781 -4.59375 2.382812 -4.421875 2.0625 -4.078125 C 1.75 -3.734375 1.59375 -3.28125 1.59375 -2.71875 C 1.59375 -2.363281 1.664062 -2.039062 1.8125 -1.75 C 1.96875 -1.46875 2.175781 -1.25 2.4375 -1.09375 C 2.707031 -0.9375 3.015625 -0.859375 3.359375 -0.859375 C 3.816406 -0.859375 4.179688 -0.972656 4.453125 -1.203125 C 4.578125 -1.296875 4.703125 -1.34375 4.828125 -1.34375 C 4.921875 -1.34375 5.007812 -1.3125 5.09375 -1.25 C 5.21875 -1.144531 5.28125 -1.023438 5.28125 -0.890625 C 5.28125 -0.796875 5.238281 -0.707031 5.15625 -0.625 C 4.675781 -0.175781 4.078125 0.046875 3.359375 0.046875 Z M 3.359375 0.046875 "/></g></g></g><g fill="#ab8742" fill-opacity="1"><g transform="translate(106.043879, 90.941468)"><g><path d="M 1.5 0 C 1.351562 0 1.234375 -0.046875 1.140625 -0.140625 C 1.046875 -0.234375 1 -0.351562 1 -0.5 L 1 -4.9375 C 1 -5.09375 1.046875 -5.210938 1.140625 -5.296875 C 1.234375 -5.390625 1.351562 -5.4375 1.5 -5.4375 C 1.65625 -5.4375 1.78125 -5.390625 1.875 -5.296875 C 1.96875 -5.210938 2.015625 -5.09375 2.015625 -4.9375 L 2.015625 -0.5 C 2.015625 -0.351562 1.96875 -0.234375 1.875 -0.140625 C 1.78125 -0.046875 1.65625 0 1.5 0 Z M 1.5 -6.328125 C 1.320312 -6.328125 1.164062 -6.390625 1.03125 -6.515625 C 0.90625 -6.648438 0.84375 -6.804688 0.84375 -6.984375 C 0.84375 -7.160156 0.90625 -7.3125 1.03125 -7.4375 C 1.164062 -7.570312 1.320312 -7.640625 1.5 -7.640625 C 1.675781 -7.640625 1.828125 -7.570312 1.953125 -7.4375 C 2.085938 -7.3125 2.15625 -7.160156 2.15625 -6.984375 C 2.15625 -6.804688 2.085938 -6.648438 1.953125 -6.515625 C 1.828125 -6.390625 1.675781 -6.328125 1.5 -6.328125 Z M 1.5 -6.328125 "/></g></g></g><g fill="#ab8742" fill-opacity="1"><g transform="translate(111.246663, 90.941468)"><g><path d="M 3.359375 -5.484375 C 3.867188 -5.484375 4.332031 -5.359375 4.75 -5.109375 C 5.164062 -4.867188 5.492188 -4.539062 5.734375 -4.125 C 5.972656 -3.707031 6.09375 -3.238281 6.09375 -2.71875 L 6.09375 -0.5 C 6.09375 -0.351562 6.046875 -0.226562 5.953125 -0.125 C 5.859375 -0.03125 5.738281 0.015625 5.59375 0.015625 C 5.445312 0.015625 5.328125 -0.03125 5.234375 -0.125 C 5.140625 -0.226562 5.09375 -0.351562 5.09375 -0.5 L 5.09375 -0.859375 C 4.851562 -0.578125 4.566406 -0.351562 4.234375 -0.1875 C 3.910156 -0.03125 3.554688 0.046875 3.171875 0.046875 C 2.691406 0.046875 2.253906 -0.0703125 1.859375 -0.3125 C 1.472656 -0.550781 1.164062 -0.878906 0.9375 -1.296875 C 0.71875 -1.722656 0.609375 -2.195312 0.609375 -2.71875 C 0.609375 -3.238281 0.726562 -3.707031 0.96875 -4.125 C 1.207031 -4.539062 1.535156 -4.867188 1.953125 -5.109375 C 2.378906 -5.359375 2.847656 -5.484375 3.359375 -5.484375 Z M 3.359375 -0.859375 C 3.691406 -0.859375 3.992188 -0.9375 4.265625 -1.09375 C 4.535156 -1.257812 4.742188 -1.484375 4.890625 -1.765625 C 5.046875 -2.046875 5.125 -2.363281 5.125 -2.71875 C 5.125 -3.070312 5.046875 -3.390625 4.890625 -3.671875 C 4.742188 -3.953125 4.535156 -4.175781 4.265625 -4.34375 C 3.992188 -4.507812 3.691406 -4.59375 3.359375 -4.59375 C 3.023438 -4.59375 2.722656 -4.507812 2.453125 -4.34375 C 2.191406 -4.175781 1.984375 -3.953125 1.828125 -3.671875 C 1.671875 -3.390625 1.59375 -3.070312 1.59375 -2.71875 C 1.59375 -2.363281 1.671875 -2.046875 1.828125 -1.765625 C 1.984375 -1.484375 2.191406 -1.257812 2.453125 -1.09375 C 2.722656 -0.9375 3.023438 -0.859375 3.359375 -0.859375 Z M 3.359375 -0.859375 "/></g></g></g><g fill="#ab8742" fill-opacity="1"><g transform="translate(120.158084, 90.941468)"><g><path d="M 5.59375 -7.765625 C 5.75 -7.765625 5.867188 -7.71875 5.953125 -7.625 C 6.046875 -7.539062 6.09375 -7.421875 6.09375 -7.265625 L 6.09375 -2.734375 C 6.09375 -2.210938 5.972656 -1.738281 5.734375 -1.3125 C 5.492188 -0.894531 5.164062 -0.5625 4.75 -0.3125 C 4.332031 -0.0703125 3.867188 0.046875 3.359375 0.046875 C 2.847656 0.046875 2.378906 -0.0703125 1.953125 -0.3125 C 1.535156 -0.5625 1.207031 -0.894531 0.96875 -1.3125 C 0.726562 -1.738281 0.609375 -2.210938 0.609375 -2.734375 C 0.609375 -3.242188 0.71875 -3.707031 0.9375 -4.125 C 1.164062 -4.550781 1.472656 -4.882812 1.859375 -5.125 C 2.253906 -5.363281 2.691406 -5.484375 3.171875 -5.484375 C 3.554688 -5.484375 3.910156 -5.398438 4.234375 -5.234375 C 4.566406 -5.078125 4.851562 -4.859375 5.09375 -4.578125 L 5.09375 -7.265625 C 5.09375 -7.421875 5.140625 -7.539062 5.234375 -7.625 C 5.328125 -7.71875 5.445312 -7.765625 5.59375 -7.765625 Z M 3.359375 -0.859375 C 3.691406 -0.859375 3.992188 -0.9375 4.265625 -1.09375 C 4.535156 -1.257812 4.742188 -1.484375 4.890625 -1.765625 C 5.046875 -2.054688 5.125 -2.378906 5.125 -2.734375 C 5.125 -3.078125 5.046875 -3.390625 4.890625 -3.671875 C 4.742188 -3.953125 4.535156 -4.175781 4.265625 -4.34375 C 3.992188 -4.507812 3.691406 -4.59375 3.359375 -4.59375 C 3.023438 -4.59375 2.722656 -4.507812 2.453125 -4.34375 C 2.191406 -4.175781 1.984375 -3.953125 1.828125 -3.671875 C 1.671875 -3.390625 1.59375 -3.078125 1.59375 -2.734375 C 1.59375 -2.378906 1.671875 -2.054688 1.828125 -1.765625 C 1.984375 -1.484375 2.191406 -1.257812 2.453125 -1.09375 C 2.722656 -0.9375 3.023438 -0.859375 3.359375 -0.859375 Z M 3.359375 -0.859375 "/></g></g></g><g fill="#ab8742" fill-opacity="1"><g transform="translate(129.347897, 90.941468)"><g><path d="M 3.359375 0.046875 C 2.828125 0.046875 2.351562 -0.0703125 1.9375 -0.3125 C 1.519531 -0.550781 1.191406 -0.878906 0.953125 -1.296875 C 0.722656 -1.710938 0.609375 -2.1875 0.609375 -2.71875 C 0.609375 -3.25 0.722656 -3.722656 0.953125 -4.140625 C 1.191406 -4.566406 1.519531 -4.894531 1.9375 -5.125 C 2.351562 -5.363281 2.828125 -5.484375 3.359375 -5.484375 C 3.890625 -5.484375 4.359375 -5.363281 4.765625 -5.125 C 5.179688 -4.894531 5.503906 -4.566406 5.734375 -4.140625 C 5.972656 -3.722656 6.09375 -3.25 6.09375 -2.71875 C 6.09375 -2.1875 5.976562 -1.710938 5.75 -1.296875 C 5.519531 -0.878906 5.195312 -0.550781 4.78125 -0.3125 C 4.363281 -0.0703125 3.890625 0.046875 3.359375 0.046875 Z M 3.359375 -0.859375 C 3.703125 -0.859375 4.003906 -0.9375 4.265625 -1.09375 C 4.535156 -1.25 4.742188 -1.46875 4.890625 -1.75 C 5.046875 -2.039062 5.125 -2.363281 5.125 -2.71875 C 5.125 -3.070312 5.046875 -3.390625 4.890625 -3.671875 C 4.742188 -3.960938 4.535156 -4.1875 4.265625 -4.34375 C 4.003906 -4.507812 3.703125 -4.59375 3.359375 -4.59375 C 3.023438 -4.59375 2.722656 -4.507812 2.453125 -4.34375 C 2.179688 -4.1875 1.96875 -3.960938 1.8125 -3.671875 C 1.664062 -3.390625 1.59375 -3.070312 1.59375 -2.71875 C 1.59375 -2.363281 1.664062 -2.039062 1.8125 -1.75 C 1.96875 -1.46875 2.179688 -1.25 2.453125 -1.09375 C 2.722656 -0.9375 3.023438 -0.859375 3.359375 -0.859375 Z M 3.359375 -0.859375 "/></g></g></g><g fill="#ab8742" fill-opacity="1"><g transform="translate(138.259318, 90.941468)"><g><path d="M 3.5625 -5.5 C 3.914062 -5.5 4.191406 -5.445312 4.390625 -5.34375 C 4.585938 -5.238281 4.6875 -5.109375 4.6875 -4.953125 C 4.6875 -4.898438 4.679688 -4.863281 4.671875 -4.84375 C 4.617188 -4.632812 4.488281 -4.53125 4.28125 -4.53125 C 4.25 -4.53125 4.195312 -4.535156 4.125 -4.546875 C 3.863281 -4.597656 3.648438 -4.625 3.484375 -4.625 C 3.003906 -4.625 2.617188 -4.515625 2.328125 -4.296875 C 2.035156 -4.078125 1.890625 -3.78125 1.890625 -3.40625 L 1.890625 -0.5 C 1.890625 -0.34375 1.847656 -0.21875 1.765625 -0.125 C 1.679688 -0.0390625 1.554688 0 1.390625 0 C 1.234375 0 1.109375 -0.0390625 1.015625 -0.125 C 0.929688 -0.207031 0.890625 -0.332031 0.890625 -0.5 L 0.890625 -4.953125 C 0.890625 -5.109375 0.929688 -5.226562 1.015625 -5.3125 C 1.109375 -5.394531 1.234375 -5.4375 1.390625 -5.4375 C 1.722656 -5.4375 1.890625 -5.273438 1.890625 -4.953125 L 1.890625 -4.75 C 2.085938 -4.988281 2.332031 -5.171875 2.625 -5.296875 C 2.914062 -5.429688 3.226562 -5.5 3.5625 -5.5 Z M 3.5625 -5.5 "/></g></g></g><g fill="#ab8742" fill-opacity="1"><g transform="translate(145.291569, 90.941468)"><g/></g></g><g fill="#ab8742" fill-opacity="1"><g transform="translate(150.40487, 90.941468)"><g><path d="M 5.59375 -7.765625 C 5.75 -7.765625 5.867188 -7.71875 5.953125 -7.625 C 6.046875 -7.539062 6.09375 -7.421875 6.09375 -7.265625 L 6.09375 -2.734375 C 6.09375 -2.210938 5.972656 -1.738281 5.734375 -1.3125 C 5.492188 -0.894531 5.164062 -0.5625 4.75 -0.3125 C 4.332031 -0.0703125 3.867188 0.046875 3.359375 0.046875 C 2.847656 0.046875 2.378906 -0.0703125 1.953125 -0.3125 C 1.535156 -0.5625 1.207031 -0.894531 0.96875 -1.3125 C 0.726562 -1.738281 0.609375 -2.210938 0.609375 -2.734375 C 0.609375 -3.242188 0.71875 -3.707031 0.9375 -4.125 C 1.164062 -4.550781 1.472656 -4.882812 1.859375 -5.125 C 2.253906 -5.363281 2.691406 -5.484375 3.171875 -5.484375 C 3.554688 -5.484375 3.910156 -5.398438 4.234375 -5.234375 C 4.566406 -5.078125 4.851562 -4.859375 5.09375 -4.578125 L 5.09375 -7.265625 C 5.09375 -7.421875 5.140625 -7.539062 5.234375 -7.625 C 5.328125 -7.71875 5.445312 -7.765625 5.59375 -7.765625 Z M 3.359375 -0.859375 C 3.691406 -0.859375 3.992188 -0.9375 4.265625 -1.09375 C 4.535156 -1.257812 4.742188 -1.484375 4.890625 -1.765625 C 5.046875 -2.054688 5.125 -2.378906 5.125 -2.734375 C 5.125 -3.078125 5.046875 -3.390625 4.890625 -3.671875 C 4.742188 -3.953125 4.535156 -4.175781 4.265625 -4.34375 C 3.992188 -4.507812 3.691406 -4.59375 3.359375 -4.59375 C 3.023438 -4.59375 2.722656 -4.507812 2.453125 -4.34375 C 2.191406 -4.175781 1.984375 -3.953125 1.828125 -3.671875 C 1.671875 -3.390625 1.59375 -3.078125 1.59375 -2.734375 C 1.59375 -2.378906 1.671875 -2.054688 1.828125 -1.765625 C 1.984375 -1.484375 2.191406 -1.257812 2.453125 -1.09375 C 2.722656 -0.9375 3.023438 -0.859375 3.359375 -0.859375 Z M 3.359375 -0.859375 "/></g></g></g><g fill="#ab8742" fill-opacity="1"><g transform="translate(159.594682, 90.941468)"><g><path d="M 5.78125 -2.8125 C 5.78125 -2.6875 5.738281 -2.582031 5.65625 -2.5 C 5.570312 -2.414062 5.460938 -2.375 5.328125 -2.375 L 1.546875 -2.375 C 1.617188 -1.90625 1.828125 -1.523438 2.171875 -1.234375 C 2.523438 -0.953125 2.953125 -0.8125 3.453125 -0.8125 C 3.648438 -0.8125 3.859375 -0.847656 4.078125 -0.921875 C 4.296875 -0.992188 4.472656 -1.082031 4.609375 -1.1875 C 4.703125 -1.257812 4.8125 -1.296875 4.9375 -1.296875 C 5.0625 -1.296875 5.160156 -1.265625 5.234375 -1.203125 C 5.359375 -1.109375 5.421875 -0.992188 5.421875 -0.859375 C 5.421875 -0.742188 5.363281 -0.644531 5.25 -0.5625 C 5.03125 -0.382812 4.75 -0.238281 4.40625 -0.125 C 4.070312 -0.0078125 3.753906 0.046875 3.453125 0.046875 C 2.910156 0.046875 2.421875 -0.0703125 1.984375 -0.3125 C 1.554688 -0.550781 1.21875 -0.878906 0.96875 -1.296875 C 0.726562 -1.710938 0.609375 -2.1875 0.609375 -2.71875 C 0.609375 -3.25 0.722656 -3.722656 0.953125 -4.140625 C 1.179688 -4.566406 1.5 -4.894531 1.90625 -5.125 C 2.320312 -5.363281 2.785156 -5.484375 3.296875 -5.484375 C 3.816406 -5.484375 4.257812 -5.367188 4.625 -5.140625 C 5 -4.921875 5.285156 -4.609375 5.484375 -4.203125 C 5.679688 -3.796875 5.78125 -3.332031 5.78125 -2.8125 Z M 3.296875 -4.625 C 2.816406 -4.625 2.425781 -4.488281 2.125 -4.21875 C 1.820312 -3.957031 1.628906 -3.609375 1.546875 -3.171875 L 4.859375 -3.171875 C 4.804688 -3.609375 4.644531 -3.957031 4.375 -4.21875 C 4.101562 -4.488281 3.742188 -4.625 3.296875 -4.625 Z M 3.296875 -4.625 "/></g></g></g><g fill="#ab8742" fill-opacity="1"><g transform="translate(167.969195, 90.941468)"><g/></g></g><g fill="#ab8742" fill-opacity="1"><g transform="translate(173.082496, 90.941468)"><g><path d="M 1.515625 0 C 1.367188 0 1.242188 -0.046875 1.140625 -0.140625 C 1.046875 -0.242188 1 -0.367188 1 -0.515625 L 1 -7.25 C 1 -7.40625 1.046875 -7.53125 1.140625 -7.625 C 1.242188 -7.71875 1.367188 -7.765625 1.515625 -7.765625 L 6.015625 -7.765625 C 6.160156 -7.765625 6.28125 -7.71875 6.375 -7.625 C 6.46875 -7.539062 6.515625 -7.425781 6.515625 -7.28125 C 6.515625 -7.144531 6.46875 -7.03125 6.375 -6.9375 C 6.28125 -6.851562 6.160156 -6.8125 6.015625 -6.8125 L 2.03125 -6.8125 L 2.03125 -4.40625 L 4.890625 -4.40625 C 5.035156 -4.40625 5.15625 -4.359375 5.25 -4.265625 C 5.34375 -4.171875 5.390625 -4.054688 5.390625 -3.921875 C 5.390625 -3.785156 5.34375 -3.671875 5.25 -3.578125 C 5.15625 -3.484375 5.035156 -3.4375 4.890625 -3.4375 L 2.03125 -3.4375 L 2.03125 -0.953125 L 6.015625 -0.953125 C 6.160156 -0.953125 6.28125 -0.910156 6.375 -0.828125 C 6.46875 -0.742188 6.515625 -0.628906 6.515625 -0.484375 C 6.515625 -0.335938 6.46875 -0.21875 6.375 -0.125 C 6.28125 -0.0390625 6.160156 0 6.015625 0 Z M 1.515625 0 "/></g></g></g><g fill="#ab8742" fill-opacity="1"><g transform="translate(182.24248, 90.941468)"><g><path d="M 5.09375 -5.375 C 5.175781 -5.332031 5.238281 -5.273438 5.28125 -5.203125 C 5.332031 -5.140625 5.359375 -5.0625 5.359375 -4.96875 C 5.359375 -4.914062 5.34375 -4.851562 5.3125 -4.78125 L 3.1875 -0.34375 C 3.09375 -0.125 2.941406 -0.015625 2.734375 -0.015625 C 2.617188 -0.015625 2.523438 -0.0351562 2.453125 -0.078125 C 2.378906 -0.128906 2.316406 -0.21875 2.265625 -0.34375 L 0.15625 -4.78125 C 0.125 -4.832031 0.109375 -4.894531 0.109375 -4.96875 C 0.109375 -5.144531 0.203125 -5.28125 0.390625 -5.375 C 0.453125 -5.40625 0.519531 -5.421875 0.59375 -5.421875 C 0.675781 -5.421875 0.753906 -5.398438 0.828125 -5.359375 C 0.898438 -5.316406 0.957031 -5.253906 1 -5.171875 L 2.734375 -1.4375 L 4.4375 -5.171875 C 4.476562 -5.253906 4.535156 -5.316406 4.609375 -5.359375 C 4.691406 -5.398438 4.773438 -5.421875 4.859375 -5.421875 C 4.941406 -5.421875 5.019531 -5.40625 5.09375 -5.375 Z M 5.09375 -5.375 "/></g></g></g><g fill="#ab8742" fill-opacity="1"><g transform="translate(189.891176, 90.941468)"><g><path d="M 5.78125 -2.8125 C 5.78125 -2.6875 5.738281 -2.582031 5.65625 -2.5 C 5.570312 -2.414062 5.460938 -2.375 5.328125 -2.375 L 1.546875 -2.375 C 1.617188 -1.90625 1.828125 -1.523438 2.171875 -1.234375 C 2.523438 -0.953125 2.953125 -0.8125 3.453125 -0.8125 C 3.648438 -0.8125 3.859375 -0.847656 4.078125 -0.921875 C 4.296875 -0.992188 4.472656 -1.082031 4.609375 -1.1875 C 4.703125 -1.257812 4.8125 -1.296875 4.9375 -1.296875 C 5.0625 -1.296875 5.160156 -1.265625 5.234375 -1.203125 C 5.359375 -1.109375 5.421875 -0.992188 5.421875 -0.859375 C 5.421875 -0.742188 5.363281 -0.644531 5.25 -0.5625 C 5.03125 -0.382812 4.75 -0.238281 4.40625 -0.125 C 4.070312 -0.0078125 3.753906 0.046875 3.453125 0.046875 C 2.910156 0.046875 2.421875 -0.0703125 1.984375 -0.3125 C 1.554688 -0.550781 1.21875 -0.878906 0.96875 -1.296875 C 0.726562 -1.710938 0.609375 -2.1875 0.609375 -2.71875 C 0.609375 -3.25 0.722656 -3.722656 0.953125 -4.140625 C 1.179688 -4.566406 1.5 -4.894531 1.90625 -5.125 C 2.320312 -5.363281 2.785156 -5.484375 3.296875 -5.484375 C 3.816406 -5.484375 4.257812 -5.367188 4.625 -5.140625 C 5 -4.921875 5.285156 -4.609375 5.484375 -4.203125 C 5.679688 -3.796875 5.78125 -3.332031 5.78125 -2.8125 Z M 3.296875 -4.625 C 2.816406 -4.625 2.425781 -4.488281 2.125 -4.21875 C 1.820312 -3.957031 1.628906 -3.609375 1.546875 -3.171875 L 4.859375 -3.171875 C 4.804688 -3.609375 4.644531 -3.957031 4.375 -4.21875 C 4.101562 -4.488281 3.742188 -4.625 3.296875 -4.625 Z M 3.296875 -4.625 "/></g></g></g><g fill="#ab8742" fill-opacity="1"><g transform="translate(198.265688, 90.941468)"><g><path d="M 3.609375 -5.5 C 4.066406 -5.5 4.476562 -5.394531 4.84375 -5.1875 C 5.207031 -4.988281 5.488281 -4.695312 5.6875 -4.3125 C 5.894531 -3.9375 6 -3.484375 6 -2.953125 L 6 -0.5 C 6 -0.351562 5.953125 -0.226562 5.859375 -0.125 C 5.765625 -0.03125 5.644531 0.015625 5.5 0.015625 C 5.351562 0.015625 5.226562 -0.03125 5.125 -0.125 C 5.03125 -0.226562 4.984375 -0.351562 4.984375 -0.5 L 4.984375 -2.953125 C 4.984375 -3.484375 4.835938 -3.882812 4.546875 -4.15625 C 4.265625 -4.4375 3.882812 -4.578125 3.40625 -4.578125 C 3.125 -4.578125 2.867188 -4.519531 2.640625 -4.40625 C 2.410156 -4.289062 2.226562 -4.132812 2.09375 -3.9375 C 1.96875 -3.75 1.90625 -3.535156 1.90625 -3.296875 L 1.90625 -0.5 C 1.90625 -0.351562 1.859375 -0.226562 1.765625 -0.125 C 1.671875 -0.03125 1.550781 0.015625 1.40625 0.015625 C 1.257812 0.015625 1.132812 -0.03125 1.03125 -0.125 C 0.9375 -0.226562 0.890625 -0.351562 0.890625 -0.5 L 0.890625 -4.9375 C 0.890625 -5.09375 0.9375 -5.210938 1.03125 -5.296875 C 1.132812 -5.390625 1.257812 -5.4375 1.40625 -5.4375 C 1.550781 -5.4375 1.671875 -5.390625 1.765625 -5.296875 C 1.859375 -5.210938 1.90625 -5.09375 1.90625 -4.9375 L 1.90625 -4.828125 C 2.125 -5.035156 2.378906 -5.195312 2.671875 -5.3125 C 2.960938 -5.4375 3.273438 -5.5 3.609375 -5.5 Z M 3.609375 -5.5 "/></g></g></g><g fill="#ab8742" fill-opacity="1"><g transform="translate(207.246707, 90.941468)"><g><path d="M 3.21875 -1 C 3.332031 -1 3.429688 -0.953125 3.515625 -0.859375 C 3.597656 -0.765625 3.640625 -0.644531 3.640625 -0.5 C 3.640625 -0.351562 3.582031 -0.234375 3.46875 -0.140625 C 3.363281 -0.046875 3.226562 0 3.0625 0 L 2.875 0 C 2.550781 0 2.253906 -0.0820312 1.984375 -0.25 C 1.710938 -0.414062 1.5 -0.644531 1.34375 -0.9375 C 1.195312 -1.238281 1.125 -1.570312 1.125 -1.9375 L 1.125 -4.390625 L 0.671875 -4.390625 C 0.523438 -4.390625 0.410156 -4.425781 0.328125 -4.5 C 0.242188 -4.582031 0.203125 -4.6875 0.203125 -4.8125 C 0.203125 -4.9375 0.242188 -5.039062 0.328125 -5.125 C 0.410156 -5.207031 0.523438 -5.25 0.671875 -5.25 L 1.125 -5.25 L 1.125 -6.671875 C 1.125 -6.816406 1.171875 -6.9375 1.265625 -7.03125 C 1.359375 -7.125 1.476562 -7.171875 1.625 -7.171875 C 1.769531 -7.171875 1.890625 -7.125 1.984375 -7.03125 C 2.078125 -6.9375 2.125 -6.816406 2.125 -6.671875 L 2.125 -5.25 L 2.96875 -5.25 C 3.101562 -5.25 3.210938 -5.207031 3.296875 -5.125 C 3.390625 -5.039062 3.4375 -4.9375 3.4375 -4.8125 C 3.4375 -4.6875 3.390625 -4.582031 3.296875 -4.5 C 3.210938 -4.425781 3.101562 -4.390625 2.96875 -4.390625 L 2.125 -4.390625 L 2.125 -1.9375 C 2.125 -1.664062 2.195312 -1.441406 2.34375 -1.265625 C 2.488281 -1.085938 2.664062 -1 2.875 -1 Z M 3.21875 -1 "/></g></g></g><g fill="#ab8742" fill-opacity="1"><g transform="translate(213.433814, 90.941468)"><g><path d="M 3.359375 0.046875 C 2.828125 0.046875 2.351562 -0.0703125 1.9375 -0.3125 C 1.519531 -0.550781 1.191406 -0.878906 0.953125 -1.296875 C 0.722656 -1.710938 0.609375 -2.1875 0.609375 -2.71875 C 0.609375 -3.25 0.722656 -3.722656 0.953125 -4.140625 C 1.191406 -4.566406 1.519531 -4.894531 1.9375 -5.125 C 2.351562 -5.363281 2.828125 -5.484375 3.359375 -5.484375 C 3.890625 -5.484375 4.359375 -5.363281 4.765625 -5.125 C 5.179688 -4.894531 5.503906 -4.566406 5.734375 -4.140625 C 5.972656 -3.722656 6.09375 -3.25 6.09375 -2.71875 C 6.09375 -2.1875 5.976562 -1.710938 5.75 -1.296875 C 5.519531 -0.878906 5.195312 -0.550781 4.78125 -0.3125 C 4.363281 -0.0703125 3.890625 0.046875 3.359375 0.046875 Z M 3.359375 -0.859375 C 3.703125 -0.859375 4.003906 -0.9375 4.265625 -1.09375 C 4.535156 -1.25 4.742188 -1.46875 4.890625 -1.75 C 5.046875 -2.039062 5.125 -2.363281 5.125 -2.71875 C 5.125 -3.070312 5.046875 -3.390625 4.890625 -3.671875 C 4.742188 -3.960938 4.535156 -4.1875 4.265625 -4.34375 C 4.003906 -4.507812 3.703125 -4.59375 3.359375 -4.59375 C 3.023438 -4.59375 2.722656 -4.507812 2.453125 -4.34375 C 2.179688 -4.1875 1.96875 -3.960938 1.8125 -3.671875 C 1.664062 -3.390625 1.59375 -3.070312 1.59375 -2.71875 C 1.59375 -2.363281 1.664062 -2.039062 1.8125 -1.75 C 1.96875 -1.46875 2.179688 -1.25 2.453125 -1.09375 C 2.722656 -0.9375 3.023438 -0.859375 3.359375 -0.859375 Z M 3.359375 -0.859375 "/></g></g></g><g fill="#ab8742" fill-opacity="1"><g transform="translate(222.345235, 90.941468)"><g><path d="M 2.875 0.046875 C 2.425781 0.046875 2 -0.0195312 1.59375 -0.15625 C 1.195312 -0.300781 0.890625 -0.488281 0.671875 -0.71875 C 0.578125 -0.800781 0.53125 -0.90625 0.53125 -1.03125 C 0.53125 -1.1875 0.597656 -1.3125 0.734375 -1.40625 C 0.859375 -1.5 0.972656 -1.546875 1.078125 -1.546875 C 1.210938 -1.546875 1.34375 -1.488281 1.46875 -1.375 C 1.59375 -1.238281 1.78125 -1.117188 2.03125 -1.015625 C 2.28125 -0.910156 2.550781 -0.859375 2.84375 -0.859375 C 3.21875 -0.859375 3.507812 -0.921875 3.71875 -1.046875 C 3.925781 -1.171875 4.03125 -1.335938 4.03125 -1.546875 C 4.03125 -1.753906 3.925781 -1.925781 3.71875 -2.0625 C 3.507812 -2.195312 3.160156 -2.3125 2.671875 -2.40625 C 1.398438 -2.65625 0.765625 -3.179688 0.765625 -3.984375 C 0.765625 -4.304688 0.859375 -4.578125 1.046875 -4.796875 C 1.242188 -5.023438 1.5 -5.195312 1.8125 -5.3125 C 2.125 -5.425781 2.457031 -5.484375 2.8125 -5.484375 C 3.238281 -5.484375 3.625 -5.410156 3.96875 -5.265625 C 4.3125 -5.128906 4.582031 -4.941406 4.78125 -4.703125 C 4.863281 -4.585938 4.90625 -4.476562 4.90625 -4.375 C 4.90625 -4.257812 4.847656 -4.160156 4.734375 -4.078125 C 4.660156 -4.015625 4.566406 -3.984375 4.453125 -3.984375 C 4.285156 -3.984375 4.128906 -4.050781 3.984375 -4.1875 C 3.828125 -4.332031 3.65625 -4.4375 3.46875 -4.5 C 3.28125 -4.5625 3.050781 -4.59375 2.78125 -4.59375 C 2.476562 -4.59375 2.226562 -4.539062 2.03125 -4.4375 C 1.832031 -4.34375 1.734375 -4.203125 1.734375 -4.015625 C 1.734375 -3.878906 1.765625 -3.765625 1.828125 -3.671875 C 1.898438 -3.585938 2.03125 -3.503906 2.21875 -3.421875 C 2.40625 -3.347656 2.675781 -3.273438 3.03125 -3.203125 C 3.75 -3.054688 4.257812 -2.851562 4.5625 -2.59375 C 4.863281 -2.332031 5.015625 -2 5.015625 -1.59375 C 5.015625 -1.289062 4.929688 -1.015625 4.765625 -0.765625 C 4.597656 -0.515625 4.351562 -0.316406 4.03125 -0.171875 C 3.707031 -0.0234375 3.320312 0.046875 2.875 0.046875 Z M 2.875 0.046875 "/></g></g></g></svg>